<svg width="33" height="30" viewBox="0 0 33 30" fill="none" xmlns="http://www.w3.org/2000/svg">
<path d="M23.375 3.99536V0.625C23.375 0.279541 23.0675 0 22.6875 0H18.5625C18.298 0 18.0563 0.137939 17.9421 0.355225L16.8156 2.49695C16.7894 2.49695 16.7625 2.49756 16.737 2.49756L16.5 2.5C8.16003 2.5 1.375 8.66821 1.375 16.25C1.375 18.5986 2.04639 20.9253 3.31598 22.9785C3.44153 23.1812 3.68591 23.3026 3.93835 23.2965C4.19482 23.2892 4.42511 23.1525 4.53589 22.9419L6.08545 19.9963C6.16333 19.848 6.17407 19.6771 6.11499 19.5221C5.70679 18.4515 5.5 17.3505 5.5 16.25C5.5 11.2811 9.49005 7.12952 14.7812 6.36475L2.81714 29.1052C2.71509 29.2987 2.72986 29.5264 2.85608 29.7083C2.98163 29.8901 3.20117 30 3.4375 30H7.5625C7.83777 30 8.08618 29.8511 8.19427 29.621L12.1407 21.25H18.5625V21.875C18.5625 22.1155 18.7142 22.334 18.9519 22.4384C19.1909 22.5433 19.4729 22.5128 19.6797 22.3633L23.1172 19.8633C23.2803 19.7443 23.375 19.5648 23.375 19.375C23.375 19.1852 23.2803 19.0057 23.1172 18.8867L19.6797 16.3867C19.4722 16.236 19.1882 16.2061 18.9519 16.3116C18.7142 16.416 18.5625 16.6345 18.5625 16.875V17.5H14.126L18.5625 8.53699V14.375C18.5625 14.5648 18.6572 14.7443 18.8203 14.8633L22.2578 17.3633C22.4633 17.5134 22.7473 17.5421 22.9856 17.4384C23.2233 17.334 23.375 17.1155 23.375 16.875V8.46191C25.9793 10.3613 27.5 13.1964 27.5 16.25C27.5 19.3996 25.8862 22.2094 23.375 24.0438V21.875C23.375 21.6345 23.2233 21.416 22.9856 21.3116C22.7466 21.2073 22.4639 21.2366 22.2578 21.3867L18.8203 23.8867C18.5927 24.0527 18.5048 24.3317 18.6014 24.5819C18.6981 24.8322 18.9579 25 19.25 25H21.8135C20.237 25.7944 18.4266 26.25 16.5 26.25C15.0793 26.25 13.6869 26.0016 12.3616 25.5115C12.0151 25.3857 11.6183 25.5316 11.4706 25.8447L10.387 28.1439C10.3145 28.2977 10.3125 28.4717 10.3823 28.6261C10.4521 28.7811 10.5871 28.9044 10.7576 28.9679C12.5898 29.6527 14.5221 30 16.5 30C24.84 30 31.625 23.8318 31.625 16.25C31.625 11.1157 28.401 6.34888 23.375 3.99536Z" fill="#303C42"/>
</svg>
