<svg width="32" height="30" viewBox="0 0 32 30" fill="none" xmlns="http://www.w3.org/2000/svg">
<path d="M28.1602 1.2H28.8002V0H6.40023C4.60823 0 3.2002 1.32003 3.2002 2.99997V26.4C3.2002 28.44 4.86416 30 7.04019 30H28.8002V4.8H28.1602C27.1362 4.8 26.2402 3.95997 26.2402 2.99997C26.2402 2.03997 27.1362 1.2 28.1602 1.2ZM6.40023 1.2H25.6002C25.6002 1.2 24.9603 2.04003 24.9603 3.00003C24.9603 3.96003 25.6002 4.8 25.6002 4.8H6.40023C5.37623 4.8 4.48019 3.95997 4.48019 2.99997C4.48019 2.03997 5.37623 1.2 6.40023 1.2ZM21.1202 6V16.32L18.5602 13.92L16.0002 16.32V6H21.1202ZM8.32019 28.8H7.04019C5.63216 28.8 4.48019 27.72 4.48019 26.4V5.39997C4.99219 5.75994 5.63216 5.99994 6.40023 5.99994H8.32026V28.8H8.32019ZM27.5203 6V28.8H9.60026V6H14.7203V19.2L18.5603 15.6L22.4003 19.2V6H27.5203Z" fill="black"/>
</svg>
