<svg width="49" height="46" viewBox="0 0 49 46" fill="none" xmlns="http://www.w3.org/2000/svg">
<path d="M27.6833 25.7859H30.7018L33.1812 25.2993L34.7071 23.8931L34.0958 22.3984C34.0311 22.4121 26.554 23.7454 26.554 23.7454L26.2998 24.4515L26.8078 25.1911L27.6833 25.7859Z" fill="black"/>
<path d="M38.3569 12.3234C38.3474 11.9579 38.1663 11.6449 37.9596 11.3581C36.2032 8.92367 31.0066 6.85547 24.4949 6.85547C17.9607 6.85547 12.7342 8.92439 11.0157 11.385C10.8201 11.665 10.6517 11.9705 10.6425 12.3237L10.0943 33.4226C10.0943 33.4262 10.0951 33.4298 10.0951 33.4334L10.0943 33.4611C10.0725 34.3074 10.7156 35.2896 11.5241 35.6651L17.4719 38.4352C18.2804 38.8107 19.6799 39.1453 20.5818 39.1453H28.4172C29.3191 39.1453 30.7187 38.8115 31.5272 38.4363L37.4749 35.6576C38.2834 35.282 38.927 34.2772 38.9048 33.4309L38.3569 12.3234ZM12.6071 24.977L14.0817 20.971L12.8796 14.4685L12.929 12.5713C12.9302 12.5695 12.9313 12.5677 12.9328 12.5659C13.7563 11.3868 16.1079 10.1567 19.4005 9.49795C19.9153 11.4034 21.1924 15.8729 21.839 15.8729C22.6574 15.8729 26.3431 15.8729 27.1616 15.8729C27.8078 15.8729 29.0848 11.4034 29.6001 9.49795C32.8927 10.1567 35.2443 11.3868 36.0677 12.5659C36.0693 12.5677 36.0704 12.5695 36.0716 12.5713L36.1209 14.4685L34.9189 20.971L36.3935 24.977L36.4578 27.4606C35.9337 28.0654 32.9593 31.5625 32.9593 31.5625V32.913L30.6942 34.0242L29.3654 32.7768H19.6347L18.306 34.0242L16.0409 32.913V31.5625C16.0409 31.5625 13.0668 28.0654 12.5424 27.4606L12.6071 24.977ZM36.4555 33.7331L30.5101 36.5025C30.1001 36.6929 29.3578 36.8841 28.8081 36.9567V36.8115C28.8081 36.8115 28.8081 36.5729 28.6844 36.4683C28.4903 36.3045 27.3415 35.572 27.1241 35.572C26.9066 35.572 22.0962 35.572 21.8788 35.572C21.6614 35.572 20.5125 36.3041 20.3184 36.4683C20.1948 36.5729 20.1948 36.8115 20.1948 36.8115V36.9567C19.6451 36.8841 18.9028 36.6929 18.4928 36.5025L12.5474 33.7331C12.5087 33.7029 12.4153 33.5631 12.3935 33.4801L12.5018 29.3017L14.7202 31.5352V33.3022L18.4733 34.9974L19.7802 33.6918H29.223L30.53 34.9974L34.2831 33.3022V31.5352L36.5015 29.3017L36.6098 33.4801C36.5876 33.5631 36.4942 33.7026 36.4555 33.7331Z" fill="black"/>
<path d="M21.3182 25.7859L22.1933 25.1911L22.7013 24.4515L22.4471 23.7454C22.4471 23.7454 14.9704 22.4121 14.9053 22.3984L14.2939 23.8931L15.8198 25.2993L18.2993 25.7859H21.3182Z" fill="black"/>
</svg>
