<svg width="64" height="64" viewBox="0 0 64 64" fill="none" xmlns="http://www.w3.org/2000/svg">
<path d="M52.24 15.28C52.24 15.7664 52.144 16.2481 51.958 16.6974C51.772 17.1468 51.4988 17.5552 51.1552 17.8991C50.8112 18.2431 50.4028 18.5159 49.9532 18.702C49.504 18.8882 49.0224 18.984 48.536 18.984C48.0496 18.984 47.568 18.8882 47.1184 18.702C46.6692 18.5159 46.2608 18.2431 45.9168 17.8991C45.5728 17.5552 45.3 17.1468 45.114 16.6974C44.9276 16.2481 44.832 15.7664 44.832 15.28C44.832 14.2976 45.222 13.3555 45.9168 12.6609C46.6116 11.9662 47.5536 11.576 48.536 11.576C49.5184 11.576 50.4604 11.9662 51.1552 12.6609C51.8496 13.3555 52.24 14.2976 52.24 15.28ZM64 32V32.048L63.788 45.472C63.734 50.3132 61.7868 54.9412 58.3636 58.3648C54.9408 61.7888 50.3132 63.7368 45.472 63.792L32 64H31.952L18.528 63.788C13.6867 63.734 9.05884 61.7868 5.63497 58.364C2.21105 54.9408 0.2631 50.3132 0.208 45.472L0 32V31.952L0.212 18.528C0.26604 13.6867 2.21297 9.05884 5.63613 5.63496C9.05928 2.21105 13.6867 0.263088 18.528 0.208008L32 0H32.048L45.472 0.212008C50.3132 0.266048 54.9412 2.21297 58.3648 5.63612C61.7888 9.05928 63.7368 13.6867 63.792 18.528L64 32ZM58.04 32L57.832 18.62C57.7944 15.3291 56.4704 12.1836 54.1436 9.85644C51.8164 7.52932 48.6708 6.2054 45.38 6.168L32 5.96L18.62 6.168C15.3291 6.2054 12.1836 7.52932 9.85644 9.85644C7.52933 12.1836 6.20541 15.3291 6.16801 18.62L5.96001 32L6.16801 45.38C6.20541 48.6708 7.52933 51.8164 9.85644 54.1436C12.1836 56.4708 15.3291 57.7944 18.62 57.832L32 58.04L45.38 57.832C48.6708 57.7944 51.8164 56.4708 54.1436 54.1436C56.4704 51.8164 57.7944 48.6708 57.832 45.38L58.04 32ZM48.432 32C48.432 36.358 46.7008 40.5376 43.6192 43.6192C40.5376 46.7008 36.358 48.432 32 48.432C27.6419 48.432 23.4624 46.7008 20.3808 43.6192C17.2992 40.5376 15.568 36.358 15.568 32C15.568 27.6419 17.2992 23.4624 20.3808 20.3808C23.4624 17.2992 27.6419 15.568 32 15.568C36.358 15.568 40.5376 17.2992 43.6192 20.3808C46.7008 23.4624 48.432 27.6419 48.432 32ZM42.472 32C42.472 29.2226 41.3688 26.559 39.4048 24.5952C37.4409 22.6313 34.7773 21.528 32 21.528C29.2226 21.528 26.559 22.6313 24.5951 24.5952C22.6313 26.559 21.528 29.2226 21.528 32C21.528 34.7773 22.6313 37.4408 24.5951 39.4048C26.559 41.3688 29.2226 42.472 32 42.472C34.7773 42.472 37.4409 41.3688 39.4048 39.4048C41.3688 37.4408 42.472 34.7773 42.472 32Z" fill="#AE13E6"/>
</svg>
