<svg width="202" height="210" viewBox="0 0 202 210" fill="none" xmlns="http://www.w3.org/2000/svg">
<path fill-rule="evenodd" clip-rule="evenodd" d="M147.003 144.374C141.14 144.381 135.354 142.979 130.098 140.277C124.842 137.575 120.258 133.647 116.703 128.799L93.709 104.999L116.724 81.1989C120.612 75.8131 125.76 71.5503 131.678 68.8159C137.597 66.0815 144.091 64.9664 150.541 65.5765C156.991 66.1866 163.184 68.5017 168.531 72.3017C173.878 76.1017 178.202 81.2602 181.09 87.287C183.979 93.3138 185.337 100.009 185.035 106.735C184.733 113.461 182.781 119.995 179.365 125.716C175.949 131.437 171.182 136.154 165.518 139.42C159.854 142.686 153.48 144.391 147.003 144.374ZM146.582 81.374C143.015 81.361 139.492 82.1964 136.283 83.816C133.073 85.4357 130.263 87.7969 128.066 90.719L114.01 104.999L128.074 119.279C130.271 122.201 133.081 124.563 136.291 126.182C139.5 127.802 143.023 128.637 146.591 128.624C149.575 128.623 152.53 128.012 155.287 126.824C158.044 125.636 160.549 123.895 162.659 121.701C164.768 119.507 166.442 116.902 167.583 114.036C168.725 111.169 169.312 108.097 169.312 104.995C169.311 101.892 168.723 98.8201 167.58 95.954C166.438 93.0879 164.763 90.4838 162.653 88.2905C160.542 86.0971 158.037 84.3574 155.279 83.1706C152.522 81.9839 149.567 81.3734 146.582 81.374V81.374Z" fill="white"/>
<path fill-rule="evenodd" clip-rule="evenodd" d="M89.3976 128.8C84.6036 135.369 77.947 140.207 70.3667 142.633C62.7863 145.058 54.6648 144.949 47.1475 142.32C39.6302 139.69 33.0966 134.674 28.468 127.978C23.8395 121.283 21.3496 113.245 21.3496 105C21.3496 96.7546 23.8395 88.7172 28.468 82.0215C33.0966 75.3258 39.6302 70.3096 47.1475 67.6804C54.6648 65.0512 62.7863 64.9417 70.3667 67.3673C77.947 69.793 84.6036 74.6313 89.3976 81.2L112.413 105L89.3976 128.8ZM78.0351 90.7375C75.8382 87.8154 73.0276 85.4543 69.8183 83.8346C66.609 82.2149 63.0859 81.3796 59.5185 81.3925C53.4914 81.3925 47.7112 83.8816 43.4495 88.3121C39.1877 92.7426 36.7935 98.7518 36.7935 105.017C36.7935 111.283 39.1877 117.292 43.4495 121.723C47.7112 126.153 53.4914 128.642 59.5185 128.642C63.086 128.656 66.6092 127.821 69.8185 126.201C73.0279 124.581 75.8384 122.22 78.0351 119.297L92.112 105L78.0351 90.7375Z" fill="white"/>
<path d="M50.5385 108.4C50.6318 108.773 50.6785 109.24 50.6785 109.8C50.6785 110.337 50.6318 110.803 50.5385 111.2H49.1385C49.2318 111.573 49.2785 112.04 49.2785 112.6C49.2785 113.137 49.2318 113.603 49.1385 114H42.1385C42.0451 113.603 41.9985 113.137 41.9985 112.6C41.9985 112.04 42.0451 111.573 42.1385 111.2H40.7385C40.6451 110.803 40.5985 110.337 40.5985 109.8C40.5985 109.24 40.6451 108.773 40.7385 108.4H39.3385C39.2451 108.003 39.1985 107.537 39.1985 107C39.1985 106.44 39.2451 105.973 39.3385 105.6C39.2451 105.203 39.1985 104.737 39.1985 104.2C39.1985 103.64 39.2451 103.173 39.3385 102.8C39.2451 102.403 39.1985 101.937 39.1985 101.4C39.1985 100.84 39.2451 100.373 39.3385 100H40.7385C40.6451 99.6033 40.5985 99.1367 40.5985 98.6C40.5985 98.04 40.6451 97.5733 40.7385 97.2H42.1385C42.0451 96.8033 41.9985 96.3367 41.9985 95.8C41.9985 95.24 42.0451 94.7733 42.1385 94.4H49.1385C49.2318 94.7733 49.2785 95.24 49.2785 95.8C49.2785 96.3367 49.2318 96.8033 49.1385 97.2H50.5385C50.6318 97.5733 50.6785 98.04 50.6785 98.6C50.6785 99.1367 50.6318 99.6033 50.5385 100H47.7385C47.6451 99.6033 47.5985 99.1367 47.5985 98.6C47.5985 98.04 47.6451 97.5733 47.7385 97.2H43.5385C43.6318 97.5733 43.6785 98.04 43.6785 98.6C43.6785 99.1367 43.6318 99.6033 43.5385 100H42.1385C42.2318 100.373 42.2785 100.84 42.2785 101.4C42.2785 101.937 42.2318 102.403 42.1385 102.8C42.2318 103.173 42.2785 103.64 42.2785 104.2C42.2785 104.737 42.2318 105.203 42.1385 105.6C42.2318 105.973 42.2785 106.44 42.2785 107C42.2785 107.537 42.2318 108.003 42.1385 108.4H43.5385C43.6318 108.773 43.6785 109.24 43.6785 109.8C43.6785 110.337 43.6318 110.803 43.5385 111.2H47.7385C47.6451 110.803 47.5985 110.337 47.5985 109.8C47.5985 109.24 47.6451 108.773 47.7385 108.4H50.5385ZM64.5521 102.8C64.6455 103.173 64.6921 103.64 64.6921 104.2C64.6921 104.737 64.6455 105.203 64.5521 105.6C64.6455 105.973 64.6921 106.44 64.6921 107C64.6921 107.537 64.6455 108.003 64.5521 108.4H63.5021C63.5955 108.773 63.6421 109.24 63.6421 109.8C63.6421 110.337 63.5955 110.803 63.5021 111.2H61.7521C61.8455 111.573 61.8921 112.04 61.8921 112.6C61.8921 113.137 61.8455 113.603 61.7521 114H56.1521C56.0588 113.603 56.0121 113.137 56.0121 112.6C56.0121 112.04 56.0588 111.573 56.1521 111.2H54.4021C54.3088 110.803 54.2621 110.337 54.2621 109.8C54.2621 109.24 54.3088 108.773 54.4021 108.4H53.3521C53.2588 108.003 53.2121 107.537 53.2121 107C53.2121 106.44 53.2588 105.973 53.3521 105.6C53.2588 105.203 53.2121 104.737 53.2121 104.2C53.2121 103.64 53.2588 103.173 53.3521 102.8C53.2588 102.403 53.2121 101.937 53.2121 101.4C53.2121 100.84 53.2588 100.373 53.3521 100H54.4021C54.3088 99.6033 54.2621 99.1367 54.2621 98.6C54.2621 98.04 54.3088 97.5733 54.4021 97.2H56.1521C56.0588 96.8033 56.0121 96.3367 56.0121 95.8C56.0121 95.24 56.0588 94.7733 56.1521 94.4H61.7521C61.8455 94.7733 61.8921 95.24 61.8921 95.8C61.8921 96.3367 61.8455 96.8033 61.7521 97.2H63.5021C63.5955 97.5733 63.6421 98.04 63.6421 98.6C63.6421 99.1367 63.5955 99.6033 63.5021 100H64.5521C64.6455 100.373 64.6921 100.84 64.6921 101.4C64.6921 101.937 64.6455 102.403 64.5521 102.8ZM61.7521 108.4C61.6588 108.003 61.6121 107.537 61.6121 107C61.6121 106.44 61.6588 105.973 61.7521 105.6C61.6588 105.203 61.6121 104.737 61.6121 104.2C61.6121 103.64 61.6588 103.173 61.7521 102.8C61.6588 102.403 61.6121 101.937 61.6121 101.4C61.6121 100.84 61.6588 100.373 61.7521 100H60.7021C60.6088 99.6033 60.5621 99.1367 60.5621 98.6C60.5621 98.04 60.6088 97.5733 60.7021 97.2H57.2021C57.2955 97.5733 57.3421 98.04 57.3421 98.6C57.3421 99.1367 57.2955 99.6033 57.2021 100H56.1521C56.2455 100.373 56.2921 100.84 56.2921 101.4C56.2921 101.937 56.2455 102.403 56.1521 102.8C56.2455 103.173 56.2921 103.64 56.2921 104.2C56.2921 104.737 56.2455 105.203 56.1521 105.6C56.2455 105.973 56.2921 106.44 56.2921 107C56.2921 107.537 56.2455 108.003 56.1521 108.4H57.2021C57.2955 108.773 57.3421 109.24 57.3421 109.8C57.3421 110.337 57.2955 110.803 57.2021 111.2H60.7021C60.6088 110.803 60.5621 110.337 60.5621 109.8C60.5621 109.24 60.6088 108.773 60.7021 108.4H61.7521ZM78.5658 97.2C78.6592 97.5733 78.7058 98.04 78.7058 98.6C78.7058 99.1367 78.6592 99.6033 78.5658 100C78.6592 100.373 78.7058 100.84 78.7058 101.4C78.7058 101.937 78.6592 102.403 78.5658 102.8C78.6592 103.173 78.7058 103.64 78.7058 104.2C78.7058 104.737 78.6592 105.203 78.5658 105.6C78.6592 105.973 78.7058 106.44 78.7058 107C78.7058 107.537 78.6592 108.003 78.5658 108.4C78.6592 108.773 78.7058 109.24 78.7058 109.8C78.7058 110.337 78.6592 110.803 78.5658 111.2C78.6592 111.573 78.7058 112.04 78.7058 112.6C78.7058 113.137 78.6592 113.603 78.5658 114H75.7658C75.6725 113.603 75.6258 113.137 75.6258 112.6C75.6258 112.04 75.6725 111.573 75.7658 111.2C75.6725 110.803 75.6258 110.337 75.6258 109.8C75.6258 109.24 75.6725 108.773 75.7658 108.4C75.6725 108.003 75.6258 107.537 75.6258 107C75.6258 106.44 75.6725 105.973 75.7658 105.6C75.6725 105.203 75.6258 104.737 75.6258 104.2C75.6258 103.64 75.6725 103.173 75.7658 102.8C75.6725 102.403 75.6258 101.937 75.6258 101.4C75.6258 100.84 75.6725 100.373 75.7658 100H74.7158C74.8092 100.373 74.8558 100.84 74.8558 101.4C74.8558 101.937 74.8092 102.403 74.7158 102.8C74.8092 103.173 74.8558 103.64 74.8558 104.2C74.8558 104.737 74.8092 105.203 74.7158 105.6H74.0158C74.1092 105.973 74.1558 106.44 74.1558 107C74.1558 107.537 74.1092 108.003 74.0158 108.4C74.1092 108.773 74.1558 109.24 74.1558 109.8C74.1558 110.337 74.1092 110.803 74.0158 111.2H71.9158C71.8225 110.803 71.7758 110.337 71.7758 109.8C71.7758 109.24 71.8225 108.773 71.9158 108.4C71.8225 108.003 71.7758 107.537 71.7758 107C71.7758 106.44 71.8225 105.973 71.9158 105.6H71.2158C71.1225 105.203 71.0758 104.737 71.0758 104.2C71.0758 103.64 71.1225 103.173 71.2158 102.8C71.1225 102.403 71.0758 101.937 71.0758 101.4C71.0758 100.84 71.1225 100.373 71.2158 100H70.1658C70.2592 100.373 70.3058 100.84 70.3058 101.4C70.3058 101.937 70.2592 102.403 70.1658 102.8C70.2592 103.173 70.3058 103.64 70.3058 104.2C70.3058 104.737 70.2592 105.203 70.1658 105.6C70.2592 105.973 70.3058 106.44 70.3058 107C70.3058 107.537 70.2592 108.003 70.1658 108.4C70.2592 108.773 70.3058 109.24 70.3058 109.8C70.3058 110.337 70.2592 110.803 70.1658 111.2C70.2592 111.573 70.3058 112.04 70.3058 112.6C70.3058 113.137 70.2592 113.603 70.1658 114H67.3658C67.2725 113.603 67.2258 113.137 67.2258 112.6C67.2258 112.04 67.2725 111.573 67.3658 111.2C67.2725 110.803 67.2258 110.337 67.2258 109.8C67.2258 109.24 67.2725 108.773 67.3658 108.4C67.2725 108.003 67.2258 107.537 67.2258 107C67.2258 106.44 67.2725 105.973 67.3658 105.6C67.2725 105.203 67.2258 104.737 67.2258 104.2C67.2258 103.64 67.2725 103.173 67.3658 102.8C67.2725 102.403 67.2258 101.937 67.2258 101.4C67.2258 100.84 67.2725 100.373 67.3658 100C67.2725 99.6033 67.2258 99.1367 67.2258 98.6C67.2258 98.04 67.2725 97.5733 67.3658 97.2C67.2725 96.8033 67.2258 96.3367 67.2258 95.8C67.2258 95.24 67.2725 94.7733 67.3658 94.4H70.8658C70.9592 94.7733 71.0058 95.24 71.0058 95.8C71.0058 96.3367 70.9592 96.8033 70.8658 97.2H71.9158C72.0092 97.5733 72.0558 98.04 72.0558 98.6C72.0558 99.1367 72.0092 99.6033 71.9158 100H72.4408C72.5342 100.373 72.5808 100.84 72.5808 101.4C72.5808 101.937 72.5342 102.403 72.4408 102.8H73.4908C73.3975 102.403 73.3508 101.937 73.3508 101.4C73.3508 100.84 73.3975 100.373 73.4908 100H74.0158C73.9225 99.6033 73.8758 99.1367 73.8758 98.6C73.8758 98.04 73.9225 97.5733 74.0158 97.2H75.0658C74.9725 96.8033 74.9258 96.3367 74.9258 95.8C74.9258 95.24 74.9725 94.7733 75.0658 94.4H78.5658C78.6592 94.7733 78.7058 95.24 78.7058 95.8C78.7058 96.3367 78.6592 96.8033 78.5658 97.2ZM90.4795 111.2C90.5728 111.573 90.6195 112.04 90.6195 112.6C90.6195 113.137 90.5728 113.603 90.4795 114H83.4795C83.3862 113.603 83.3395 113.137 83.3395 112.6C83.3395 112.04 83.3862 111.573 83.4795 111.2H85.5795C85.4862 110.803 85.4395 110.337 85.4395 109.8C85.4395 109.24 85.4862 108.773 85.5795 108.4C85.4862 108.003 85.4395 107.537 85.4395 107C85.4395 106.44 85.4862 105.973 85.5795 105.6C85.4862 105.203 85.4395 104.737 85.4395 104.2C85.4395 103.64 85.4862 103.173 85.5795 102.8C85.4862 102.403 85.4395 101.937 85.4395 101.4C85.4395 100.84 85.4862 100.373 85.5795 100C85.4862 99.6033 85.4395 99.1367 85.4395 98.6C85.4395 98.04 85.4862 97.5733 85.5795 97.2H83.4795C83.3862 96.8033 83.3395 96.3367 83.3395 95.8C83.3395 95.24 83.3862 94.7733 83.4795 94.4H90.4795C90.5728 94.7733 90.6195 95.24 90.6195 95.8C90.6195 96.3367 90.5728 96.8033 90.4795 97.2H88.3795C88.4728 97.5733 88.5195 98.04 88.5195 98.6C88.5195 99.1367 88.4728 99.6033 88.3795 100C88.4728 100.373 88.5195 100.84 88.5195 101.4C88.5195 101.937 88.4728 102.403 88.3795 102.8C88.4728 103.173 88.5195 103.64 88.5195 104.2C88.5195 104.737 88.4728 105.203 88.3795 105.6C88.4728 105.973 88.5195 106.44 88.5195 107C88.5195 107.537 88.4728 108.003 88.3795 108.4C88.4728 108.773 88.5195 109.24 88.5195 109.8C88.5195 110.337 88.4728 110.803 88.3795 111.2H90.4795ZM106.593 108.4C106.686 108.773 106.733 109.24 106.733 109.8C106.733 110.337 106.686 110.803 106.593 111.2H105.193C105.286 111.573 105.333 112.04 105.333 112.6C105.333 113.137 105.286 113.603 105.193 114H98.1932C98.0998 113.603 98.0532 113.137 98.0532 112.6C98.0532 112.04 98.0998 111.573 98.1932 111.2H96.7932C96.6998 110.803 96.6532 110.337 96.6532 109.8C96.6532 109.24 96.6998 108.773 96.7932 108.4H95.3932C95.2998 108.003 95.2532 107.537 95.2532 107C95.2532 106.44 95.2998 105.973 95.3932 105.6C95.2998 105.203 95.2532 104.737 95.2532 104.2C95.2532 103.64 95.2998 103.173 95.3932 102.8C95.2998 102.403 95.2532 101.937 95.2532 101.4C95.2532 100.84 95.2998 100.373 95.3932 100H96.7932C96.6998 99.6033 96.6532 99.1367 96.6532 98.6C96.6532 98.04 96.6998 97.5733 96.7932 97.2H98.1932C98.0998 96.8033 98.0532 96.3367 98.0532 95.8C98.0532 95.24 98.0998 94.7733 98.1932 94.4H105.193C105.286 94.7733 105.333 95.24 105.333 95.8C105.333 96.3367 105.286 96.8033 105.193 97.2H106.593C106.686 97.5733 106.733 98.04 106.733 98.6C106.733 99.1367 106.686 99.6033 106.593 100H103.793C103.7 99.6033 103.653 99.1367 103.653 98.6C103.653 98.04 103.7 97.5733 103.793 97.2H99.5932C99.6865 97.5733 99.7332 98.04 99.7332 98.6C99.7332 99.1367 99.6865 99.6033 99.5932 100H98.1932C98.2865 100.373 98.3332 100.84 98.3332 101.4C98.3332 101.937 98.2865 102.403 98.1932 102.8C98.2865 103.173 98.3332 103.64 98.3332 104.2C98.3332 104.737 98.2865 105.203 98.1932 105.6C98.2865 105.973 98.3332 106.44 98.3332 107C98.3332 107.537 98.2865 108.003 98.1932 108.4H99.5932C99.6865 108.773 99.7332 109.24 99.7332 109.8C99.7332 110.337 99.6865 110.803 99.5932 111.2H103.793C103.7 110.803 103.653 110.337 103.653 109.8C103.653 109.24 103.7 108.773 103.793 108.4H106.593ZM120.607 105.6C120.7 105.973 120.747 106.44 120.747 107C120.747 107.537 120.7 108.003 120.607 108.4C120.7 108.773 120.747 109.24 120.747 109.8C120.747 110.337 120.7 110.803 120.607 111.2H119.207C119.3 111.573 119.347 112.04 119.347 112.6C119.347 113.137 119.3 113.603 119.207 114H110.807C110.714 113.603 110.667 113.137 110.667 112.6C110.667 112.04 110.714 111.573 110.807 111.2H109.407C109.314 110.803 109.267 110.337 109.267 109.8C109.267 109.24 109.314 108.773 109.407 108.4H112.207C112.3 108.773 112.347 109.24 112.347 109.8C112.347 110.337 112.3 110.803 112.207 111.2H117.807C117.714 110.803 117.667 110.337 117.667 109.8C117.667 109.24 117.714 108.773 117.807 108.4C117.714 108.003 117.667 107.537 117.667 107C117.667 106.44 117.714 105.973 117.807 105.6H110.807C110.714 105.203 110.667 104.737 110.667 104.2C110.667 103.64 110.714 103.173 110.807 102.8H109.407C109.314 102.403 109.267 101.937 109.267 101.4C109.267 100.84 109.314 100.373 109.407 100C109.314 99.6033 109.267 99.1367 109.267 98.6C109.267 98.04 109.314 97.5733 109.407 97.2H110.807C110.714 96.8033 110.667 96.3367 110.667 95.8C110.667 95.24 110.714 94.7733 110.807 94.4H119.207C119.3 94.7733 119.347 95.24 119.347 95.8C119.347 96.3367 119.3 96.8033 119.207 97.2H120.607C120.7 97.5733 120.747 98.04 120.747 98.6C120.747 99.1367 120.7 99.6033 120.607 100H117.807C117.714 99.6033 117.667 99.1367 117.667 98.6C117.667 98.04 117.714 97.5733 117.807 97.2H112.207C112.3 97.5733 112.347 98.04 112.347 98.6C112.347 99.1367 112.3 99.6033 112.207 100C112.3 100.373 112.347 100.84 112.347 101.4C112.347 101.937 112.3 102.403 112.207 102.8H119.207C119.3 103.173 119.347 103.64 119.347 104.2C119.347 104.737 119.3 105.203 119.207 105.6H120.607ZM134.621 102.8C134.714 103.173 134.761 103.64 134.761 104.2C134.761 104.737 134.714 105.203 134.621 105.6C134.714 105.973 134.761 106.44 134.761 107C134.761 107.537 134.714 108.003 134.621 108.4H133.571C133.664 108.773 133.711 109.24 133.711 109.8C133.711 110.337 133.664 110.803 133.571 111.2H131.821C131.914 111.573 131.961 112.04 131.961 112.6C131.961 113.137 131.914 113.603 131.821 114H126.221C126.127 113.603 126.081 113.137 126.081 112.6C126.081 112.04 126.127 111.573 126.221 111.2H124.471C124.377 110.803 124.331 110.337 124.331 109.8C124.331 109.24 124.377 108.773 124.471 108.4H123.421C123.327 108.003 123.281 107.537 123.281 107C123.281 106.44 123.327 105.973 123.421 105.6C123.327 105.203 123.281 104.737 123.281 104.2C123.281 103.64 123.327 103.173 123.421 102.8C123.327 102.403 123.281 101.937 123.281 101.4C123.281 100.84 123.327 100.373 123.421 100H124.471C124.377 99.6033 124.331 99.1367 124.331 98.6C124.331 98.04 124.377 97.5733 124.471 97.2H126.221C126.127 96.8033 126.081 96.3367 126.081 95.8C126.081 95.24 126.127 94.7733 126.221 94.4H131.821C131.914 94.7733 131.961 95.24 131.961 95.8C131.961 96.3367 131.914 96.8033 131.821 97.2H133.571C133.664 97.5733 133.711 98.04 133.711 98.6C133.711 99.1367 133.664 99.6033 133.571 100H134.621C134.714 100.373 134.761 100.84 134.761 101.4C134.761 101.937 134.714 102.403 134.621 102.8ZM131.821 108.4C131.727 108.003 131.681 107.537 131.681 107C131.681 106.44 131.727 105.973 131.821 105.6C131.727 105.203 131.681 104.737 131.681 104.2C131.681 103.64 131.727 103.173 131.821 102.8C131.727 102.403 131.681 101.937 131.681 101.4C131.681 100.84 131.727 100.373 131.821 100H130.771C130.677 99.6033 130.631 99.1367 130.631 98.6C130.631 98.04 130.677 97.5733 130.771 97.2H127.271C127.364 97.5733 127.411 98.04 127.411 98.6C127.411 99.1367 127.364 99.6033 127.271 100H126.221C126.314 100.373 126.361 100.84 126.361 101.4C126.361 101.937 126.314 102.403 126.221 102.8C126.314 103.173 126.361 103.64 126.361 104.2C126.361 104.737 126.314 105.203 126.221 105.6C126.314 105.973 126.361 106.44 126.361 107C126.361 107.537 126.314 108.003 126.221 108.4H127.271C127.364 108.773 127.411 109.24 127.411 109.8C127.411 110.337 127.364 110.803 127.271 111.2H130.771C130.677 110.803 130.631 110.337 130.631 109.8C130.631 109.24 130.677 108.773 130.771 108.4H131.821ZM147.234 102.8C147.328 103.173 147.374 103.64 147.374 104.2C147.374 104.737 147.328 105.203 147.234 105.6H141.634C141.728 105.973 141.774 106.44 141.774 107C141.774 107.537 141.728 108.003 141.634 108.4C141.728 108.773 141.774 109.24 141.774 109.8C141.774 110.337 141.728 110.803 141.634 111.2C141.728 111.573 141.774 112.04 141.774 112.6C141.774 113.137 141.728 113.603 141.634 114H138.834C138.741 113.603 138.694 113.137 138.694 112.6C138.694 112.04 138.741 111.573 138.834 111.2C138.741 110.803 138.694 110.337 138.694 109.8C138.694 109.24 138.741 108.773 138.834 108.4C138.741 108.003 138.694 107.537 138.694 107C138.694 106.44 138.741 105.973 138.834 105.6C138.741 105.203 138.694 104.737 138.694 104.2C138.694 103.64 138.741 103.173 138.834 102.8C138.741 102.403 138.694 101.937 138.694 101.4C138.694 100.84 138.741 100.373 138.834 100C138.741 99.6033 138.694 99.1367 138.694 98.6C138.694 98.04 138.741 97.5733 138.834 97.2C138.741 96.8033 138.694 96.3367 138.694 95.8C138.694 95.24 138.741 94.7733 138.834 94.4H147.234C147.328 94.7733 147.374 95.24 147.374 95.8C147.374 96.3367 147.328 96.8033 147.234 97.2H141.634C141.728 97.5733 141.774 98.04 141.774 98.6C141.774 99.1367 141.728 99.6033 141.634 100C141.728 100.373 141.774 100.84 141.774 101.4C141.774 101.937 141.728 102.403 141.634 102.8H147.234ZM161.248 102.8C161.341 103.173 161.388 103.64 161.388 104.2C161.388 104.737 161.341 105.203 161.248 105.6H155.648C155.741 105.973 155.788 106.44 155.788 107C155.788 107.537 155.741 108.003 155.648 108.4C155.741 108.773 155.788 109.24 155.788 109.8C155.788 110.337 155.741 110.803 155.648 111.2C155.741 111.573 155.788 112.04 155.788 112.6C155.788 113.137 155.741 113.603 155.648 114H152.848C152.755 113.603 152.708 113.137 152.708 112.6C152.708 112.04 152.755 111.573 152.848 111.2C152.755 110.803 152.708 110.337 152.708 109.8C152.708 109.24 152.755 108.773 152.848 108.4C152.755 108.003 152.708 107.537 152.708 107C152.708 106.44 152.755 105.973 152.848 105.6C152.755 105.203 152.708 104.737 152.708 104.2C152.708 103.64 152.755 103.173 152.848 102.8C152.755 102.403 152.708 101.937 152.708 101.4C152.708 100.84 152.755 100.373 152.848 100C152.755 99.6033 152.708 99.1367 152.708 98.6C152.708 98.04 152.755 97.5733 152.848 97.2C152.755 96.8033 152.708 96.3367 152.708 95.8C152.708 95.24 152.755 94.7733 152.848 94.4H161.248C161.341 94.7733 161.388 95.24 161.388 95.8C161.388 96.3367 161.341 96.8033 161.248 97.2H155.648C155.741 97.5733 155.788 98.04 155.788 98.6C155.788 99.1367 155.741 99.6033 155.648 100C155.741 100.373 155.788 100.84 155.788 101.4C155.788 101.937 155.741 102.403 155.648 102.8H161.248Z" fill="#121122"/>
</svg>
