<svg width="65" height="64" viewBox="0 0 65 64" fill="none" xmlns="http://www.w3.org/2000/svg">
<path d="M32.8281 0C15.1497 0 0.828125 14.3236 0.828125 32C0.828125 49.6764 15.1517 64 32.8281 64C50.5066 64 64.8281 49.6764 64.8281 32C64.8281 14.3236 50.5045 0 32.8281 0ZM48.5453 21.9231L43.2932 46.6725C42.905 48.4274 41.8604 48.8526 40.4028 48.0268L32.4028 42.1306L28.5443 45.8467C28.119 46.272 27.7577 46.6333 26.9319 46.6333L27.4996 38.4908L42.3249 25.0963C42.9711 24.5285 42.1824 24.2065 41.3298 24.7742L23.0072 36.3086L15.1104 33.8436C13.3948 33.3027 13.3556 32.128 15.4717 31.3022L46.3239 19.4044C47.7566 18.8883 49.0077 19.7533 48.5432 21.921L48.5453 21.9231Z" fill="#AE13E6"/>
</svg>
