<svg width="65" height="64" viewBox="0 0 65 64" fill="none" xmlns="http://www.w3.org/2000/svg">
<path fill-rule="evenodd" clip-rule="evenodd" d="M0.15332 32C0.15332 14.3269 14.4803 0 32.1533 0C49.8264 0 64.1533 14.3269 64.1533 32C64.1533 49.6731 49.8264 64 32.1533 64C14.4803 64 0.15332 49.6731 0.15332 32ZM33.8273 42.5015C33.8273 42.5015 34.4433 42.4343 34.7588 42.1016C35.0476 41.7968 35.0376 41.2216 35.0376 41.2216C35.0376 41.2216 34.9992 38.5357 36.2697 38.1391C37.5219 37.7491 39.1295 40.7365 40.8357 41.8853C42.1245 42.7539 43.1028 42.5637 43.1028 42.5637L47.6621 42.5015C47.6621 42.5015 50.0461 42.3572 48.9159 40.5169C48.8224 40.3661 48.2564 39.1552 45.5269 36.6675C42.6671 34.0636 43.0511 34.4847 46.4935 29.9799C48.5904 27.2365 49.4284 25.5617 49.1663 24.8457C48.9176 24.1607 47.3749 24.3425 47.3749 24.3425L42.2431 24.3737C42.2431 24.3737 41.8624 24.3229 41.5803 24.4884C41.3048 24.6507 41.1261 25.0292 41.1261 25.0292C41.1261 25.0292 40.3148 27.1513 39.2313 28.9572C36.9459 32.7657 36.0327 32.9672 35.6587 32.7313C34.7889 32.1791 35.0059 30.5157 35.0059 29.3341C35.0059 25.6421 35.5769 24.1033 33.8957 23.7051C33.3381 23.5724 32.9275 23.4855 31.5 23.4708C29.6687 23.4528 28.1193 23.4773 27.2412 23.8985C26.6569 24.1787 26.2061 24.8047 26.4816 24.8408C26.8205 24.8849 27.5885 25.044 27.9959 25.588C28.5217 26.2911 28.5033 27.8675 28.5033 27.8675C28.5033 27.8675 28.8056 32.2135 27.7972 32.7525C27.106 33.1229 26.1577 32.3675 24.1193 28.9113C23.076 27.1416 22.288 25.1849 22.288 25.1849C22.288 25.1849 22.136 24.8195 21.8639 24.6228C21.5351 24.3852 21.0759 24.3115 21.0759 24.3115L16.1995 24.3425C16.1995 24.3425 15.4665 24.3623 15.1977 24.6752C14.9591 24.9521 15.1793 25.5273 15.1793 25.5273C15.1793 25.5273 18.9975 34.2963 23.3213 38.716C27.2863 42.7669 31.7872 42.5015 31.7872 42.5015H33.8273Z" fill="#AE13E6"/>
</svg>
